<?xml version="1.0" standalone="no"?>
<!DOCTYPE svg PUBLIC "-//W3C//DTD SVG 20010904//EN"
 "http://www.w3.org/TR/2001/REC-SVG-20010904/DTD/svg10.dtd">
<svg version="1.0" xmlns="http://www.w3.org/2000/svg"
 width="100.000000pt" height="100.000000pt" viewBox="0 0 100.000000 100.000000"
 preserveAspectRatio="xMidYMid meet">
<metadata>
Created by potrace 1.11, written by Peter Selinger 2001-2013
</metadata>
<g transform="translate(0.000000,100.000000) scale(0.100000,-0.100000)"
fill="#000000" stroke="none">
<path d="M262 594 c-62 -123 -112 -226 -112 -229 0 -3 77 -4 172 -3 126 2 172
6 176 16 3 9 -31 12 -147 12 l-151 0 85 170 c47 94 89 170 93 170 4 0 66 -117
137 -261 72 -143 133 -263 137 -265 9 -6 178 338 178 361 0 45 -27 8 -97 -130
l-79 -155 -134 266 c-74 146 -137 267 -140 269 -3 2 -56 -97 -118 -221z"/>
</g>
</svg>
